PathFileType	4	(X/Y/Z)	OpenSim_Sub01_CSBaseline_Accel.trc
DataRate	CameraRate	NumFrames	NumMarkers	Units	OrigDataRate	OrigDataStartFrame	OrigNumFrames
100	100	27	8	m	100	744	5950
Frame#	Time	torso_imu_offset_imu	pelvis_imu_offset_imu	tibia_r_imu_offset_imu	femur_r_imu_offset_imu	tibia_l_imu_offset_imu	femur_l_imu_offset_imu	toes_r_imu_offset_imu	toes_l_imu_offset_imu
				X1	Y1	Z1	X2	Y2	Z2	X3	Y3	Z3	X4	Y4	Z4	X5	Y5	Z5	X6	Y6	Z6	X7	Y7	Z7	X8		Y8	Z8	

744	7.43000000	8.82566814	-1.90297449	6.01547312	9.12687854	1.07850444	2.02232096	9.85937930	0.87613169	-0.28568522	9.34968187	0.65891553	0.36671302	11.89266605	-2.73555995	0.63222578	9.32674310	4.43792922	2.15811331	5.71030784	-2.08056608	7.96357776	16.18588683	4.71803671	8.18349489
745	7.44000000	8.81660808	-1.95417265	6.00816618	9.17118351	0.91895474	1.98430840	9.81568741	1.15012524	-0.22078215	9.38214397	0.50583190	0.30560660	11.92937673	-2.55121788	0.22991420	9.02153866	5.08544268	2.67327598	5.89026632	-2.01268549	7.83317953	15.91017097	4.00890425	7.10344596
746	7.45000000	8.83153480	-1.99035973	6.01581372	9.22251620	0.80426303	1.97624890	9.83975617	1.42956298	-0.12130005	9.44145117	0.25688270	0.18866886	11.92325883	-2.14149245	0.06150249	8.70829675	5.68031949	3.11582389	6.02332988	-1.93358506	7.75276845	15.75906564	2.81816421	6.01493651
747	7.46000000	8.89623457	-1.99723735	6.04668425	9.28643231	0.74830696	1.98653094	9.94208182	1.61002971	-0.03719278	9.50392474	-0.01074867	0.02637274	11.86739801	-1.65907319	0.02909357	8.46476162	6.20685035	3.40529695	6.03955150	-1.88832255	7.75958216	15.70933475	1.09457785	4.71925292
748	7.47000000	8.96936709	-1.99034207	6.08585579	9.36382083	0.74706718	1.98314265	10.03433289	1.65619778	0.01612526	9.51882662	-0.22351112	-0.14882190	11.70946192	-1.20359124	-0.06334842	8.12543843	6.56147899	3.56711396	6.00922084	-1.86397721	7.79543772	15.82786345	-1.08226635	2.96584767
749	7.48000000	9.00517015	-1.98717296	6.11649219	9.45220587	0.79467512	1.93387420	10.02543361	1.54819923	0.03001805	9.43984214	-0.31948839	-0.30381253	11.40534690	-0.86144155	-0.40549647	7.53417385	6.64171758	3.64080934	6.01462507	-1.84173472	7.79538293	16.17423427	-3.56011203	0.57591098
750	7.49000000	9.00599743	-1.98381413	6.13439021	9.52089306	0.89117116	1.83296887	9.93402456	1.32926104	0.01758006	9.30411997	-0.35180406	-0.42957433	11.05934154	-0.65648863	-0.98425083	6.97102195	6.47881731	3.66374437	6.06601914	-1.82292494	7.75787091	16.60675477	-5.61925370	-1.81636979
751	7.50000000	9.00247662	-1.96380052	6.14279603	9.52267310	1.04000541	1.69023167	9.84333458	1.07979037	0.00471321	9.19785913	-0.44113892	-0.53120649	10.86253838	-0.57575054	-1.66640161	6.97180925	6.18293893	3.67147921	6.13119647	-1.82074296	7.71868277	16.86523357	-6.20889858	-3.10097138
752	7.51000000	9.00190694	-1.92841884	6.14435756	9.43821181	1.22850161	1.50631086	9.80806267	0.87167402	0.01485003	9.16792201	-0.64331605	-0.59691207	10.85039574	-0.61491473	-2.21435695	7.74359562	5.86753240	3.58950842	6.18453906	-1.84456117	7.69761131	16.73936685	-5.05349569	-2.96489549
753	7.52000000	8.95872021	-1.91892665	6.14017301	9.31084813	1.40790304	1.26097480	9.81738740	0.75671545	0.06554390	9.17198593	-0.86749522	-0.57678700	10.70860676	-0.79007492	-2.16108461	8.75249813	5.65111110	3.09779264	6.21635421	-1.89488023	7.67769852	16.13358066	-3.61681453	-2.88724265
754	7.53000000	8.83300748	-1.97497332	6.13151145	9.19498210	1.52881659	0.94451422	9.85212686	0.77842681	0.16757476	9.16008539	-1.01150060	-0.42489094	10.13186101	-1.11603335	-1.11460719	9.40016262	5.62501656	1.90383368	6.22179786	-1.96884316	7.63967581	14.96254948	-3.37493729	-4.28721951
755	7.54000000	8.71713183	-2.06377221	6.12357038	9.17165916	1.58567882	0.68501553	9.89831074	0.92277796	0.27000814	9.12793196	-1.06099891	-0.18943352	9.39629369	-1.56575459	0.22172121	9.45764652	5.59300570	0.34243285	6.22383555	-2.04132242	7.59175626	13.08648773	-3.50148322	-5.46241258
756	7.55000000	8.78118889	-2.10988388	6.12389003	9.33737483	1.59867086	0.69139429	9.94537372	1.14173907	0.28580887	9.09838257	-1.05344431	0.02599568	9.12007444	-2.08632406	0.50299335	8.91557554	5.19033183	-0.88271147	6.26164348	-2.07422208	7.55835731	10.33605744	-1.81969312	-2.88030065
757	7.56000000	9.13251093	-2.05439349	6.14536326	9.73174746	1.56443783	1.07549129	10.05283502	1.37565613	0.19265317	9.13668858	-1.01955073	0.15174706	9.71648590	-2.37071272	-0.64170098	8.11406542	4.29509969	-1.31241872	6.33316811	-2.06532593	7.56232657	7.08763840	2.17910847	4.58155162
758	7.57000000	9.73614656	-1.87648704	6.21275852	10.26704164	1.42636732	1.73021650	10.43649308	1.53991885	0.11364672	9.40191180	-0.97349946	0.19549730	11.13178916	-1.54564034	-1.39152199	8.16670580	3.33214014	-1.04373165	6.34389363	-2.09284912	7.62254165	4.93610529	5.24271159	12.61525372
759	7.58000000	10.52971996	-1.56968697	6.34788106	10.84420426	1.12851211	2.51681424	11.30193522	1.55563038	0.17997811	10.04247343	-0.92956111	0.17801611	13.19064934	1.13560802	0.12175316	10.11349356	2.77514048	-0.25936892	6.19881389	-2.23732688	7.75004398	5.45888484	4.08070664	16.62523051
760	7.59000000	11.36648545	-1.22229806	6.52535662	11.42523720	0.69618469	3.27543904	12.53103403	1.43773760	0.40313647	10.96590536	-0.92602237	0.14722682	15.11478224	4.32216588	3.19395919	13.15425291	2.83846732	0.75042787	5.92701633	-2.49089563	7.88052286	8.35121973	0.26172898	16.63132774
761	7.60000000	12.05027464	-0.97814931	6.69205187	12.00801860	0.20273863	3.83420106	13.81486605	1.25635185	0.72394546	11.93773047	-1.01498856	0.16702663	15.77304969	5.43175608	5.60695336	15.40654806	3.58281272	1.63221098	5.63084258	-2.79345787	7.90551639	12.19776691	-1.78997086	15.37177241
762	7.61000000	12.45868642	-0.89862231	6.81022018	12.56058988	-0.25620455	4.10531520	14.87983068	1.04026222	1.07187024	12.74342010	-1.17463755	0.29190952	14.63471973	3.14866489	5.88479651	15.68265453	4.92077650	2.07975775	5.42323778	-3.06656735	7.78011423	15.52682021	0.06325305	14.67246825
763	7.62000000	12.63533964	-0.85953519	6.87724746	12.98338411	-0.53672278	4.18900397	15.53664453	0.72446588	1.35307005	13.21705130	-1.21779679	0.55492763	12.51890350	-0.98126649	4.25126592	14.37614612	6.43895676	1.89404015	5.43869389	-3.19234320	7.60247995	16.77294024	2.77466627	14.24528635
764	7.63000000	12.63574569	-0.72323240	6.89390271	13.17187816	-0.50612876	4.20604622	15.62476901	0.25174791	1.47562690	13.21395837	-0.95475545	0.97227399	10.37620025	-5.11614454	1.22805492	12.12132790	7.65687210	0.93529433	5.82295037	-3.06679826	7.49494984	14.62240986	2.96004115	13.57201257
765	7.64000000	12.40628510	-0.47216633	6.84680605	13.06482160	-0.21518695	4.22681772	15.16263778	-0.22369400	1.40002724	12.74103213	-0.40056870	1.41604532	8.62910980	-8.35491664	-1.96182663	9.82888100	7.85691459	-0.47415816	6.80776395	-2.78446337	7.62955682	10.49112737	0.99281628	12.71211373
766	7.65000000	11.82953872	-0.15958088	6.71434220	12.62670504	0.17737160	4.29184931	14.27450744	-0.42335619	1.11799579	11.89485724	0.30890728	1.67389055	7.38844245	-10.35241838	-3.68575978	8.56941790	6.18473782	-1.74061762	8.67402065	-2.55670326	8.20646156	7.39868118	-0.54221738	12.06490781
767	7.66000000	10.91058169	0.17429221	6.49846691	11.86738765	0.56655747	4.41799108	13.13666847	-0.15535502	0.69000605	10.83329674	1.03625029	1.65135140	6.73147320	-10.94928316	-3.18135380	8.75513353	2.45272332	-2.52708946	11.36060813	-2.53681359	9.17378807	6.97852349	-0.19105896	11.83280292
768	7.67000000	9.92964654	0.52029645	6.25396668	10.89721575	0.97040681	4.57011583	12.03846096	0.57533588	0.32902762	9.84835545	1.64402755	1.51945542	6.66963953	-10.38467803	-1.63974303	9.32450452	-2.03515535	-3.07718328	14.04190725	-2.74515299	9.91648798	7.72501656	0.91342373	11.76904755
769	7.68000000	9.18342655	0.86895171	6.03852802	9.84532556	1.40774608	4.70725335	11.26525357	1.72029165	0.23498539	9.23999099	2.00401782	1.46706091	7.18492041	-8.96468944	-0.41164654	9.14892889	-5.81429117	-3.67221925	15.82594008	-3.15638965	9.81061924	7.85764123	1.40700431	11.59368478
770	7.69000000	8.75419500	1.16402939	5.86597945	8.89446783	1.73371174	4.80071741	10.90350140	3.05749411	0.26012092	9.20288615	2.08311069	1.49625926	8.04714123	-7.12956129	0.23351226	8.46587873	-7.84529390	-4.17180841	16.20356943	-3.45919475	8.92709386	7.14295450	1.15047426	11.31136755
